<svg id="Layer_1" data-name="Layer 1" xmlns="http://www.w3.org/2000/svg" viewBox="0 0 400 300"><title>#3 new message</title><ellipse cx="208.16" cy="262.05" rx="124.75" ry="20.71" fill="#e6e6e6" opacity="0.45"/><path d="M125.88,252.76s-1.18,4-4.7,4.49-4.24,4-1,4.73,11.19-3.84,11.19-3.84l-.53-5.09Z" fill="#6893fd"/><path d="M186.08,252.76s1.19,4,4.7,4.49,4.24,4,1,4.73-11.18-3.84-11.18-3.84l.52-5.09Z" fill="#6893fd"/><path d="M175.83,36.59s.66,7.68-.63,12.79a3.87,3.87,0,0,1-4.73,2.8c-2.56-.69-5.83-2.37-6.69-6.44L161.47,39a6.94,6.94,0,0,1,3.06-7.4C168.87,28.47,175.65,31.88,175.83,36.59Z" fill="#f4a28c"/><polygon points="162.62 40.77 152.05 64.08 165.28 68.64 167.56 50.42 162.62 40.77" fill="#f4a28c"/><path d="M160.54,40.9l-.06,4.61a5.23,5.23,0,0,0,6.32-2.09,6.43,6.43,0,0,0,0-7.06s1,2.78,3.44,1.11,4-1.58,4.18.25,3.37,1.75,4.72-1.92-3.82-2.25-2.24-4.41,3.83-3.66.58-5.58-2.83,2.26-5,0S170,21,166.4,22.27s-1.19,4.73-4.84,4.07-4.74.14-5.16,4.05c-.27,2.55-.48,4.44.76,5.15A6.22,6.22,0,0,1,160.54,40.9Z" fill="#24285b"/><path d="M167.63,43.19s-.06-3-2.29-2.74-2.17,4.52.86,4.92Z" fill="#f4a28c"/><path d="M176,41.45l2.15,3a1.24,1.24,0,0,1-.78,1.94l-3,.56Z" fill="#f4a28c"/><path d="M167.49,50.93A9.42,9.42,0,0,1,164,47.31s-2.74,4.81,2.86,8.85Z" fill="#ce8172" opacity="0.31"/><path d="M183.77,71.7s53.08,17.06,52.78,58.06l-35.79-22Z" fill="#6893fd"/><rect x="300.85" y="164.07" width="5.79" height="96.23" fill="#c9c9c9"/><rect x="300.85" y="164.07" width="5.79" height="96.23" fill="#6893fd"/><rect x="300.85" y="164.07" width="5.79" height="96.23" fill="#fff" opacity="0.48"/><path d="M283.49,130.15h32.08a13,13,0,0,1,13,13v20.93a0,0,0,0,1,0,0H270.24a0,0,0,0,1,0,0V143.4A13.25,13.25,0,0,1,283.49,130.15Z" fill="#6893fd"/><path d="M281.2,130.15h0a11,11,0,0,1,11,11v23a0,0,0,0,1,0,0H270.24a0,0,0,0,1,0,0v-23a11,11,0,0,1,11-11Z" fill="#6893fd"/><path d="M281.2,130.15h0a11,11,0,0,1,11,11v23a0,0,0,0,1,0,0H270.24a0,0,0,0,1,0,0v-23a11,11,0,0,1,11-11Z" opacity="0.08"/><polygon points="291.67 260.31 285.5 241.34 296.1 248.5 297 228 307.92 248.67 319.75 241.34 312.67 260.31 291.67 260.31" fill="#c9c9c9"/><path d="M121.59,61a13.71,13.71,0,0,1,10.72-3.21c12.81,1.58,45.9,6.82,60.78,20.17,18.67,16.76,27.33,38.89-18.67,96.16H131.09S90.75,88.07,121.59,61Z" fill="#6893fd"/><path d="M132.48,81.37s-.39,21.06,8.94,31.73,56.93,26.16,56.93,26.16h0a166.46,166.46,0,0,1-22.85,33.67l-1.08,1.23H131.09s-15.34-34.49-18.89-58.22C109.74,99.48,132.48,81.37,132.48,81.37Z" opacity="0.08"/><rect x="140.15" y="82.37" width="46.11" height="40.22" transform="translate(6.81 -10.12) rotate(3.63)" fill="#24285b"/><polygon points="163.75 92.06 136.43 110.71 134.09 147.63 186.16 150.93 188.5 114.01 163.75 92.06" fill="#ffd200"/><path d="M136.43,110.71s2.2,30.05,50.39,29.79l-.67,10.43-52.06-3.3Z" opacity="0.08"/><path d="M122.76,133s6-6.83,17-.83l-1,7.08h-16Z" fill="#f4a28c"/><path d="M120,60.64c-14.8,7.85-44.35,25.78-54.51,73.83a9.83,9.83,0,0,0,11.07,11.78l46.17-7V133l-29-2s42.62-26.75,39.65-63.16A9.12,9.12,0,0,0,120,60.64Z" fill="#6893fd"/><path d="M120,60.64c-14.8,7.85-44.35,25.78-54.51,73.83a9.83,9.83,0,0,0,11.07,11.78l46.17-7V133l-29-2s42.62-26.75,39.65-63.16A9.12,9.12,0,0,0,120,60.64Z" fill="#fff" opacity="0.2"/><path d="M193.09,84.1s-7.1-5.28-13.72-4.31l-1,7s12.71,3,14.71,6.34Z" fill="#f4a28c"/><path d="M193.09,84.1l41.21,37.75a7.81,7.81,0,0,1-4.93,13.57c-12.73.47-29.74-6.27-36.28-42.32Z" fill="#6893fd"/><path d="M193.09,84.1l41.21,37.75a7.81,7.81,0,0,1-4.93,13.57c-12.73.47-29.74-6.27-36.28-42.32Z" fill="#fff" opacity="0.2"/><rect x="170.09" y="118.74" width="10.83" height="9.02" transform="translate(8.15 -10.85) rotate(3.63)" fill="#fff"/><rect x="147.87" y="117.73" width="14.67" height="2.57" transform="translate(7.84 -9.58) rotate(3.63)" opacity="0.08"/><rect x="147.56" y="122.7" width="14.67" height="2.57" transform="translate(8.15 -9.55) rotate(3.63)" opacity="0.08"/><polygon points="131.09 174.16 122.76 253.33 133.56 253.33 152 186.83 174.43 174.16 131.09 174.16" fill="#24285b"/><polygon points="174.43 174.16 188.5 253.33 179 253.33 153.67 186.5 147.25 181.5 174.43 174.16" fill="#24285b"/><path d="M200,43S290.63,30.36,291.75,117" fill="none" stroke="#c9c9c9" stroke-linecap="round" stroke-linejoin="round" stroke-width="2" stroke-dasharray="3 10"/><rect x="307.92" y="143.13" width="8.5" height="8.5" rx="4.25" ry="4.25" fill="#fff" opacity="0.21"/><path d="M312.17,148.61a1.5,1.5,0,0,1-1.5-1.5V121.22a6.79,6.79,0,0,1,6.78-6.78h17.22a1.5,1.5,0,0,1,0,3H317.45a3.78,3.78,0,0,0-3.78,3.78v25.89A1.5,1.5,0,0,1,312.17,148.61Z" fill="#6893fd"/><path d="M312.17,148.61a1.5,1.5,0,0,1-1.5-1.5V121.22a6.79,6.79,0,0,1,6.78-6.78h17.22a1.5,1.5,0,0,1,0,3H317.45a3.78,3.78,0,0,0-3.78,3.78v25.89A1.5,1.5,0,0,1,312.17,148.61Z" opacity="0.08"/><rect x="323.42" y="112.5" width="16.08" height="6.67" fill="#6893fd"/><rect x="323.42" y="112.83" width="16.08" height="6.67" fill="#6893fd"/></svg>